<?xml version="1.0" standalone="no"?>
<!DOCTYPE svg PUBLIC "-//W3C//DTD SVG 1.1//EN" "http://www.w3.org/Graphics/SVG/1.1/DTD/svg11.dtd" >
<svg xmlns="http://www.w3.org/2000/svg">
<metadata>Generated by IcoMoon</metadata>
<defs>
<font id="ems-icons" horiz-adv-x="1024">
<font-face units-per-em="1024" ascent="960" descent="-64" />
<missing-glyph horiz-adv-x="1024" />
<glyph unicode="&#x20;" horiz-adv-x="512" d="" />
<glyph unicode="&#xa001;" glyph-name="businesses" d="M969.6 531.2h-207.995v374.4c0 24.945-16.66 41.6-41.6 41.6h-416.005c-24.945 0-41.595-16.655-41.595-41.6v-374.4h-208.005c-24.94 0-41.6-16.655-41.6-41.6v-540.8h998.4v540.8c0 24.945-16.655 41.6-41.6 41.6zM96 32v416h166.405v-416h-166.405zM345.6 32v832h332.8v-832h-332.8zM761.605 32v416h166.395v-416h-166.395zM179.2 406.4h41.605v-83.2h-41.605v83.2zM179.2 281.6h41.605v-83.2h-41.605v83.2zM803.2 406.4h41.6v-83.2h-41.6v83.2zM803.2 281.6h41.6v-83.2h-41.6v83.2zM428.8 780.8h41.6v-83.2h-41.6v83.2zM428.8 656h41.6v-83.2h-41.6v83.2zM428.8 531.2h41.6v-83.2h-41.6v83.2zM428.8 406.4h41.6v-83.2h-41.6v83.2zM428.8 281.6h41.6v-83.2h-41.6v83.2zM553.6 780.8h41.6v-83.2h-41.6v83.2zM553.6 656h41.6v-83.2h-41.6v83.2zM553.6 531.2h41.6v-83.2h-41.6v83.2zM553.6 406.4h41.6v-83.2h-41.6v83.2zM553.6 281.6h41.6v-83.2h-41.6v83.2z" />
<glyph unicode="&#xa002;" glyph-name="dashboard-home" d="M510.986 860.426h2.043c1.137-2.831 3.026-5.325 5.601-6.999 6.298-3.978 10.609-10.394 17.162-14.039 4.116-4.388 8.602-8.407 13.24-12.247 55.071-48.225 110.075-96.512 165.166-144.691 0.236 7.997-0.584 16.046 0.369 24.003 2.811 7.506 11.116 10.665 18.079 13.158 22.6 6.825 46.546 7.726 69.985 6.589 15.109-0.937 30.454-2.765 44.677-8.264 5.381-2.442 11.776-5.54 13.548-11.684 1.172-8.381 0.251-16.865 0.43-25.308 0.195-42.604-0.195-85.233 0.195-127.862 45.414-39.173 90.163-79.15 135.547-118.364 7.916-7.25 12.303-17.51 14.177-27.924v-10.348c-2.125-12.483-8.407-24.535-18.893-31.944-15.892-11.996-39.685-11.996-55.286 0.507-141.727 124.221-283.412 248.489-425.216 372.608-137.334-119.987-274.232-240.497-411.53-360.515-7.020-5.99-13.025-13.476-21.678-17.198-15.053-7.214-33.874-5.325-47.176 4.756-10.194 7.276-16.323 18.995-18.621 31.124v10.798c1.736 11.039 6.671 21.704 15.171 29.133 157.21 137.907 314.516 275.712 471.803 413.517 3.994 3.446 8.269 6.707 11.208 11.192zM162.191 386.668c116.69 100.506 232.965 201.513 349.676 301.978 116.454-103.936 232.965-207.831 349.44-311.747 0.056-108.6 0-217.196 0.041-325.786 0.154-5.192-0.082-10.394-0.799-15.544h-204.575c-0.333 53.955 0 107.93-0.174 161.889-0.548 34.181-13.865 67.937-36.874 93.21-20.183 22.538-47.698 38.497-77.358 44.575-31.683 6.748-65.654 2.478-94.556-12.247-38.61-18.995-67.389-56.397-76.186-98.473-4.526-21.059-2.79-42.706-3.041-64.061-0.353-41.631 0.486-83.282-0.43-124.897h-204.928c-0.43 117.033 0 234.066-0.236 351.104z" />
<glyph unicode="&#xa003;" glyph-name="calendar-schedule" d="M279.071 947.2h3.871c19.712-0.579 37.018-17.889 36.956-37.75 0.246-37.509 0-75.049 0.097-112.548 0.087-8.351-1.469-16.968-6.19-24.038-8.991-14.321-27.971-21.212-43.965-15.672-16.056 4.879-27.208 21.212-26.598 37.908 0.031 38.298-0.215 76.662 0.123 114.99 0.236 19.19 16.686 35.768 35.707 37.11zM740.91 947.2h3.779c19.103-1.188 35.712-17.859 35.978-37.14 0.333-37.658 0-75.382 0.123-113.070 0.21-9.421-2.068-19.108-7.926-26.568-8.32-11.090-22.938-16.968-36.618-14.602-13.65 2.068-25.656 12.221-30.039 25.318-2.412 6.979-2.232 14.438-2.232 21.76 0.123 35.528-0.148 71.081 0.123 106.639-0.051 19.773 17.188 36.992 36.813 37.663zM100.639 867.031c11.459 2.872 23.311 3.512 35.098 3.42 23.009 0 46.008-0.031 69.038 0 0.067-23.859 0.031-47.718 0-71.542 0.189-9.928 0.794-20.019 4.178-29.471 7.219-22.272 25.38-40.699 47.59-48.169 19.866-6.968 42.563-5.212 61.092 4.792 25.841 13.281 41.769 42.189 40.709 71.050 0.092 24.438-0.031 48.87 0.061 73.339 102.369 0 204.774 0 307.21 0 0.123-25.718-0.21-51.4 0.123-77.092 0.118-21.448 9.533-42.619 25.626-56.822 15.718-14.29 37.601-21.33 58.685-19.082 20.475 1.859 39.88 12.59 52.495 28.8 10.598 13.281 16.307 30.131 16.481 47.099 0.364 25.692 0.031 51.369 0.154 77.092 25.651-0.092 51.308 0.092 76.928-0.092 29.102 0 57.892-11.459 78.945-31.508 21.939-20.5 34.949-49.818 36.142-79.77v-698.24c-0.947-29.128-13.071-57.738-33.848-78.218-20.48-20.751-49.060-32.84-78.126-33.818h-775.972c-28.058 1.398-55.608 13.041-75.628 32.84-21.325 20.541-33.874 49.608-34.826 79.16v698.102c0.824 16.43 4.659 32.748 12.068 47.468 14.746 30.008 43.238 52.869 75.776 60.662zM89.58 601.62c0.031-179.22-0.092-358.431 0.061-537.651-0.328-20.541 17.92-38.723 38.42-38.328 255.452-0.118 510.874-0.061 766.29-0.031 14.382-0.42 28.79 7.47 35.436 20.388 4.362 7.788 4.844 16.932 4.659 25.651-0.087 176.66 0 353.311-0.061 529.971-281.59 0-563.21 0-844.805 0zM195.523 494.95h162.007v-162.058h-162.007v162.058zM426.537 494.95h162.002v-162.058h-162.002v162.058zM657.516 494.95h162.007v-162.058h-162.007v162.058zM195.523 263.941h162.007v-162.068h-162.007v162.068zM426.537 263.941h162.002v-162.068h-162.002v162.068zM657.516 263.941h162.007v-162.068h-162.007v162.068z" />
<glyph unicode="&#xa004;" glyph-name="add-to-list" d="M203.53 742.958c12.58 0.532 25.16 0.502 37.688-0.118 8.069-1.715 17.101-0.389 24.12-5.376 10.9-6.702 18.371-18.693 19.041-31.549 0.86-17.326 1.398-34.893-1.562-52.029-6.001-12.585-16.978-25.549-31.969-25.708-18.309-0.707-36.659-1.244-54.922 0.271-12.421 6.308-24.73 16.87-25.979 31.703-0.778 16.394-0.778 32.829 0 49.229 1.29 17.49 17.024 30.689 33.582 33.577zM385.249 737.116c7.132 1.050 14.29 2.217 21.54 2.176 95.222 0.707 190.408 0.389 285.64 0.43 20.91-0.543 41.861 0.543 62.74-1.244 15.928-0.466 27.919-14.408 31.77-28.974 0.881-17.096 0.748-34.314 0.051-51.456-3.42-13.972-13.471-28.232-28.242-31.268-20.803-1.244-41.59-0.891-62.351-1.009-88.612-0.271-177.172-0.159-265.769 0.041-13.128 0.23-26.332 0-39.46 0.937-10.322 1.362-17.838 9.697-23.332 17.833-6.892 9.774-4.91 22.241-6.231 33.413 0.742 15.58-1.439 33.029 8.381 46.351 4.004 5.289 9.114 10.117 15.263 12.769zM189.189 542.387c8.53 5.018 18.78 4.004 28.242 5.135 16.399 0 34.391 2.918 48.84-6.733 8.412-4.055 12.692-12.662 16.323-20.767 4.132-14.060 1.869-28.861 2.299-43.31 0.502-16.082-6.349-34.852-22.282-41.318-13.21-4.332-27.341-3.348-41.052-3.502-10.322 0.148-21.422-0.901-30.73 4.429-8.919 4.332-15.109 12.119-20.838 19.912 0.241 17.869-0.66 35.748-0.189 53.591-0.082 13.312 7.752 26.173 19.389 32.563zM387.82 544.753c6.308 4.439 14.1 2.959 21.34 3.108 114.038 0 228.040 0 342.108 0.046 6.979 0.236 12.662-4.71 18.621-7.675 7.47-3.809 11.218-11.607 14.812-18.77 0.732-1.874 1.469-3.814 2.171-5.724 1.249-16.522 0-33.029 0.271-49.582-39.020-3.241-78.351-8.96-114.698-24.381-8.412-2.688-16-7.992-24.648-9.82-85.478-0.348-170.982 0.589-256.461 0.66-5.422-0.041-9.39 4.291-13.64 7.091-8.719 6.861-15.181 17.572-14.72 28.902-0.312 15.078-0.461 30.152 0.159 45.179 0.696 14.3 12.063 25.672 24.684 30.966zM758.052 385.27c35.912 4.239 72.868 0.742 106.87-11.73 57.098-21.581 105.472-66.719 129.152-123.182 14.019-33.388 18.729-70.19 16.671-106.179-2.34-43.812-20.721-85.688-47.278-120.218-37.238-47.841-94.991-78.92-155.402-83.932-54.262-5.299-110.019 10.348-153.999 42.45-20.408 16.548-39.762 35.118-53.939 57.441-21.499 32.681-34.309 71.081-36.178 110.141-2.918 46.618 9.508 94.019 34.739 133.361 34.693 55.137 94.756 93.507 159.365 101.847zM748.442 278.19c0-25.39 0.072-50.821-0.082-76.252-25.441 0.082-50.872 0.041-76.298 0.041 0-26.138 0-52.229 0-78.372 25.431 0.041 50.862 0 76.298 0.041 0.189-25.498 0.031-51.052 0.082-76.559 25.902 0.118 51.83 0.579 77.732 0.778 0.118 25.231 0.538 50.432 0.538 75.668 25.283 0.358 50.601 0.399 75.868 0.589 0.271 25.928 0.671 51.912 0.701 77.85-25.508 0.041-51.052-0.108-76.6 0.082-0.041 25.431 0 50.831 0 76.252-26.092-0.067-52.188 0.082-78.239-0.118zM175.642 336.348c5.919 7.741 14.019 15.15 24.228 15.729 20.372 1.29 40.771-0.118 61.138 0.118 8.53-6.702 18.232-13.169 21.499-24.141 0.312-2.729 0.62-5.499 1.009-8.218 2.181-10.132 0.901-20.649 1.372-30.93 0.42-8.571-0.86-17.060-2.918-25.359-5.729-11.52-15.268-23.67-29.128-24.458-18.432-0.65-36.89-0.768-55.311 0.092-12.662 5.33-24.73 15.57-27.259 29.752-1.362 11.878-0.63 23.839-0.778 35.712 0.389 10.706-0.671 22.636 6.149 31.703zM416.881 352.62c44.78 0.041 89.651 1.408 134.4-1.009-8.878-13.819-19.2-26.752-26.563-41.518-12.662-23.060-22.738-47.498-29.722-72.909-24.028 0.041-48.092-0.108-72.12 0.118-5.228 0-10.481-0.189-15.549 1.019-8.842 0.23-17.72 1.198-25.892 4.9-7.869 5.919-14.961 13.829-17.608 23.521-2.801 13.763-2.652 27.858-1.172 41.759 0 13.092 1.828 28.698 13.829 36.531 11.305 9.498 26.808 6.81 40.397 7.588zM493.978 97.751c-48.758-0.010-97.521-0.102-146.289-0.061-53.35 0.041-106.701 0.102-160.051 0.179-54.958-1.239-104.218 47.908-103.060 102.82-0.271 193.772-0.271 387.492 0 581.248-0.512 42.895 28.59 83.912 69.248 97.444 15.34 5.827 31.898 5.96 48.138 6.036 188.892-0.292 377.748 0.22 566.641-0.21 54.948 1.382 104.412-47.713 103.322-102.764 0.169-106.568 0.23-319.795 0.23-319.795s0-3.922 0-10.742c6.502-1.869 12.959-3.912 19.328-6.241 18.171-6.881 35.661-15.59 52.229-25.8v371.108c-3.86 88.914-82.109 165.289-171.331 166.011h-593.393c-87.788-3.773-163.338-79.78-166.19-167.685v-592.072c0.778-89.702 78.090-168.33 167.629-171.131h339.231c-11.581 22.661-20.229 46.792-25.682 71.654z" />
<glyph unicode="&#xa005;" glyph-name="jobs" d="M336.128 841.667c0.758 33.024 30.664 61.696 63.667 61.327 74.906 0.113 149.837 0.072 224.737 0.026 32.978 0.435 62.843-28.278 63.626-61.281 0.297-38.257 0.067-76.508 0.108-114.765 61.327-0.138 122.675-0.092 184.003-0.026 19.451 0.507 39.219-1.695 57.308-9.175 47.247-18.161 81.101-66.253 81.536-116.987 0.159-55.818 0.046-111.647 0.072-167.47-137.057-0.159-274.089 0.23-411.146-0.184 0.343-29.747 0.092-59.469 0.133-89.216-0.256-15.063 1.628-30.802-4.357-45.117-9.405-25.359-35.871-42.957-62.909-41.646-20.593 1.034-41.677-2.365-61.875 2.57-22.753 6.328-41.098 26.143-45.619 49.357-1.951 9.17-1.26 18.596-1.331 27.884 0 32.108-0.026 64.241 0 96.348-129.715-0.051-259.436-0.026-389.176 0-7.363 0.072-14.766-0.507-22.108 0.502 0.645 44.206 0.097 88.397 0.282 132.613 0.297 22.226-1.654 44.974 4.977 66.555 10.25 36.972 38.093 68.46 73.416 83.343 16.855 7.383 35.318 10.639 53.688 10.527 63.596 0.072 127.217 0.072 190.812 0 0.138 38.282-0.205 76.534 0.159 114.816zM423.808 727.291c58.778-0.85 117.606-0.251 176.389-0.323 0 29.312 0 58.644 0.020 87.956-58.711 0.092-117.402 0-176.113 0.067-0.251-29.24 0.323-58.481-0.297-87.7zM13.082 374.692c117.422-0.179 234.844 0 352.271-0.092 0.113-27.085-0.020-54.17 0.072-81.229 0.481-29.937 15.959-59.013 40.269-76.421 16.748-12.339 37.617-18.78 58.394-18.463 33.69 0.077 67.354-0.133 101.023 0.097 39.373 0.691 76.14 28.298 88.525 65.572 5.622 15.227 5.524 31.652 5.299 47.636-0.138 20.941 0.138 41.902-0.072 62.838 117.427-0.026 234.87 0.020 352.297-0.026 0.072-83.62 0.026-167.214 0.026-250.834 0.323-30.367-10.486-60.616-29.972-83.871-24.151-29.399-61.722-47.334-99.855-46.925-236.938-0.041-473.902 0-710.856-0.020-18.442 0.343-37.176-1.213-55.322 2.98-35.666 7.547-67.333 31.196-85.243 62.884-11.238 19.635-17.065 42.296-16.855 64.906 0 83.661 0 167.306 0 250.967z" />
<glyph unicode="&#xa006;" glyph-name="projects" d="M507.218 947.031c8.417 0.86 16.85-1.408 24.253-5.33 151.557-78.505 303.053-157.092 454.63-235.571 7.066-3.84 15.222-6.825 19.855-13.783 9.784-13.691 5.545-35.717-10.010-43.233-154.322-80.42-308.705-160.732-463.043-241.085-12.831-6.984-29.005-6.723-41.882 0.015-154.404 80.44-308.859 160.737-463.222 241.229-15.857 7.782-19.579 30.679-8.975 44.145 4.342 5.929 11.382 8.637 17.649 11.96 150.922 78.582 301.88 157.143 452.803 235.73 5.586 2.985 11.617 5.335 17.94 5.924zM115.712 520.596c5.555 1.91 11.858 1.69 16.988-1.295 109.445-57.114 218.844-114.314 328.284-171.448 24.351-12.401 53.258-15.877 79.698-8.637 9.231 2.248 17.444 7.204 25.8 11.54 104.049 54.39 208.113 108.723 312.192 163.057 8.632 4.756 18.739 10.962 28.81 6.405 29.025-14.679 57.928-29.64 86.917-44.462 16.174-8.417 19.732-32.297 8.315-45.998-3.697-4.654-9.364-6.907-14.444-9.61-148.25-77.21-296.55-154.301-444.764-231.572-7.593-3.845-15.043-8.479-23.552-9.912-9.83-1.792-20.234-0.2-29.051 4.536-151.322 78.787-302.659 157.527-453.949 236.349-6.81 3.502-14.423 6.559-18.806 13.23-9.789 13.445-5.832 35.195 9.349 42.906 29.348 15.089 58.588 30.449 88.212 44.913zM119.537 292.28c7.122 1.597 13.568-2.084 19.497-5.443 98.836-51.671 197.709-103.26 296.55-154.921 16.154-8.095 31.672-18.043 49.475-22.246 24.397-5.883 51.548-4.557 73.769 7.895 106.301 55.547 212.634 111.017 318.889 166.6 6.764 3.287 13.215 8.279 21.069 8.335 5.555 0.701 10.445-2.304 15.201-4.695 26.737-13.798 53.555-27.412 80.292-41.201 16.138-8.197 19.86-32.031 8.678-45.742-4.296-5.489-11.080-7.895-16.988-11.182-150.922-78.387-301.681-157.046-452.567-235.51-13.128-7.163-29.763-7.224-42.87 0.041-149.089 77.588-298.158 155.182-447.237 232.827-7.572 4.316-16.23 7.163-22.579 13.368-12.493 12.672-9.943 36.864 5.908 45.614 27.848 14.551 55.946 28.692 83.876 43.095 2.867 1.413 5.832 2.77 9.037 3.164z" />
<glyph unicode="&#xa007;" glyph-name="people" d="M462.612 921.953c55.506 10.972 114.673 3.067 164.961-23.030 57.057-28.938 102.241-80.425 123.443-140.81 23.153-64.102 18.703-137.533-12.093-198.354-23.926-48.251-63.667-88.325-111.739-112.645-60.175-31.058-133.043-36.239-197.048-14.126-62.551 20.946-115.901 67.64-145.142 126.771-32.015 63.027-35.205 139.607-9.585 205.394 30.572 79.396 103.393 141.117 187.203 156.8zM117.586 274.504c49.331 63.283 113.823 114.944 186.993 148.076 36.71-29.978 79.693-52.485 125.747-64.020 4.823-1.418 10.926-1.987 13.123-7.47 22.595-38.482 44.498-77.44 67.087-115.937 0.778 0.046 2.376 0.046 3.2 0.046 24.1 39.777 45.481 81.464 70.707 120.381 49.285 12.186 96.108 34.606 135.194 67.174 120.648-55.035 217.795-159.693 262.195-284.826 19.61-53.868 29.199-111.273 29.373-168.591-332.815-0.179-665.585 0-998.4-0.092 0.087 109.629 36.925 219.008 104.781 305.26z" />
<glyph unicode="&#xa008;" glyph-name="employees-users" d="M246.405 794.051c24.934 8.668 52.285 10.701 78.121 5.018 35.83-7.429 68.275-29.542 88.627-59.94 16.676-24.422 25.206-54.18 24.402-83.722-53.75-24.074-93.747-75.776-103.526-133.868-29.588-8.448-61.885-7.26-90.624 3.881-34.243 12.918-63.007 39.629-78.459 72.801-19.374 40.468-17.935 90.189 3.83 129.408 16.645 30.612 44.82 54.692 77.629 66.422zM622.551 754.12c23.941 27.11 58.424 44.728 94.525 47.56 38.292 3.63 77.798-9.211 106.588-34.739 27.469-23.711 45.215-58.322 48.379-94.469 3.61-36.019-7.404-73.119-29.757-101.55-34.54-45.332-97.669-65.879-152.269-49.331-9.846 57.969-49.725 109.788-103.521 133.652-1.193 35.999 12.001 72.115 36.055 98.877zM484.178 631.332c31.319 6.19 64.712 1.731 93.087-13 32.195-16.328 57.697-45.379 69.658-79.462 13.066-36.168 10.557-77.609-6.825-111.928-13.501-27.218-35.927-49.838-63.053-63.56-33.956-17.531-75.075-20.449-111.196-7.972-35.297 11.822-65.398 38.17-81.9 71.532-18.063 35.569-19.866 78.781-5.412 115.912 17.26 44.795 58.353 79.626 105.641 88.479zM79.857 444.012c26.665 31.252 60.104 56.812 97.546 73.759 22.016-18.36 48.435-30.812 76.145-37.76 15.063-22.129 26.399-46.899 41.364-69.181 12.211 21.55 24.74 42.952 37.1 64.43 3.292-34.883 16.527-68.808 38.441-96.21-52.777-26.030-97.935-67.082-128.988-117.048-76.221-0.072-152.438-0.072-228.659 0-0.123 66.058 23.91 131.917 67.052 182.011zM770.14 480.23c28.032 6.139 54.374 19.328 76.462 37.632 57.283-26.199 105.421-72.003 133.939-128.23 20.229-39.291 30.71-83.482 30.659-127.652-76.221-0.051-152.412 0-228.628-0.020-30.981 49.961-76.119 91.131-128.916 116.992 21.786 27.571 35.118 61.43 38.364 96.41 12.913-21.381 24.376-43.689 37.975-64.62 13.21 23.27 26.491 46.479 40.146 69.489zM289.423 265.979c27.837 35.712 64.23 64.86 105.518 83.548 20.716-16.911 44.969-29.609 70.953-36.122 2.724-0.799 6.164-1.121 7.404-4.219 12.749-21.709 25.108-43.699 37.857-65.418 0.44 0.031 1.341 0.031 1.807 0.031 13.599 22.441 25.667 45.972 39.9 67.932 27.812 6.871 54.236 19.523 76.288 37.898 68.081-31.048 122.9-90.112 147.953-160.722 11.064-30.403 16.476-62.792 16.573-95.14-187.807-0.102-375.583 0-563.389-0.051 0.056 61.865 20.849 123.581 59.136 172.262z" />
<glyph unicode="&#xa009;" glyph-name="applicants" d="M472.525 921.958c55.506 10.972 114.673 3.062 164.961-23.030 57.057-28.938 102.241-80.425 123.443-140.815 23.153-64.102 18.703-137.528-12.093-198.349-23.926-48.256-63.667-88.325-111.739-112.645-60.175-31.063-133.043-36.244-197.048-14.131-62.556 20.951-115.901 67.64-145.142 126.776-32.015 63.022-35.205 139.602-9.585 205.389 30.572 79.401 103.398 141.117 187.203 156.805zM629.627 136.791c0 115.338 93.507 208.84 208.845 208.84 3.64 0 7.26-0.097 10.854-0.282-35.978 31.314-76.344 57.59-119.782 77.404-39.086-32.568-85.908-54.989-135.194-67.174-25.226-38.917-46.607-80.604-70.707-120.381-0.824 0-2.422 0-3.2-0.051-22.584 38.502-44.488 77.46-67.087 115.942-2.196 5.484-8.294 6.052-13.123 7.47-46.049 11.535-89.037 34.038-125.747 64.020-73.17-33.132-137.667-84.792-186.993-148.076-67.855-86.257-104.694-195.63-104.786-305.254 249.032 0.067 460.78-0.015 691.036 0.010-51.046 38.077-84.116 98.939-84.116 167.532zM843.505 290.867c-87.142 0-157.778-70.636-157.778-157.773s70.641-157.778 157.778-157.778 157.778 70.641 157.778 157.778-70.636 157.773-157.778 157.773zM939.889 188.477c-0.507-4.992-2.842-9.728-6.42-13.24-36.664-36.69-73.324-73.38-109.972-110.054-2.473-2.514-5.878-3.988-9.37-4.27h-1.751c-3.4 0.282-6.717 1.684-9.16 4.076-20.040 20.091-40.1 40.151-60.14 60.247-5.55 5.622-7.588 14.377-5.115 21.878 1.894 5.996 6.528 11.064 12.344 13.455 5.796 2.468 12.641 2.222 18.237-0.66 2.872-1.372 5.222-3.538 7.404-5.821 12.457-12.452 24.883-24.919 37.356-37.356 29.844 29.85 59.668 59.725 89.518 89.574 3.702 3.738 8.796 5.949 14.034 6.349h2.545c5.253-0.358 10.409-2.529 14.131-6.292 4.695-4.572 7.107-11.351 6.359-17.884z" />
<glyph unicode="&#xa010;" glyph-name="clients" d="M311.475 890.455c31.887 11.085 66.852 13.67 99.881 6.41 45.809-9.498 87.296-37.77 113.316-76.631 21.32-31.232 32.225-69.274 31.196-107.044-68.716-30.792-119.854-96.891-132.357-171.156-37.832-10.808-79.124-9.283-115.871 4.956-43.776 16.522-80.553 50.673-100.316 93.087-24.771 51.732-22.932 115.308 4.9 165.453 21.279 39.142 57.308 69.924 99.251 84.925zM615.485 682.399c40.044 7.916 82.734 2.217 119.014-16.614 41.16-20.874 73.764-58.025 89.062-101.591 16.707-46.244 13.496-99.231-8.724-143.109-17.26-34.806-45.932-63.718-80.62-81.27-43.412-22.405-95.985-26.143-142.167-10.189-45.123 15.114-83.62 48.804-104.719 91.459-23.091 45.476-25.395 100.726-6.912 148.188 22.062 57.283 74.604 101.811 135.066 113.126zM98.534 442.906c34.094 39.956 76.851 72.643 124.713 94.305 28.15-23.465 61.932-39.388 97.357-48.276 19.261-28.293 33.756-59.96 52.89-88.443 15.611 27.551 31.631 54.917 47.432 82.371 4.204-44.595 21.13-87.977 49.147-123.003-67.471-33.285-125.21-85.765-164.915-149.652-97.449-0.092-194.898-0.092-292.352 0-0.154 84.454 30.577 168.658 85.729 232.699zM366.479 215.286c35.589 45.66 82.12 82.924 134.912 106.829 26.491-21.627 57.498-37.868 90.726-46.188 3.482-1.019 7.88-1.428 9.467-5.386 16.302-27.766 32.108-55.875 48.399-83.645 0.563 0.036 1.715 0.036 2.309 0.036 17.388 28.692 32.809 58.772 51.011 86.851 35.558 8.791 69.345 24.965 97.541 48.461 87.045-39.706 157.133-115.215 189.169-205.491 14.147-38.866 21.064-80.282 21.192-121.636-240.113-0.128-480.2 0-720.323-0.067 0.061 79.089 26.644 158.008 75.597 220.237z" />
<glyph unicode="&#xa011;" glyph-name="certificates" d="M775.48 623.744c-0.717 20.772-4.511 42.358-13.993 61.076-21.791 54.917-73.38 95.887-130.903 107.884-83.169 19.021-176.701-28.764-206.956-109.123-12.508-27.535-18.509-59.377-13.123-89.426 1.075-26.506 10.665-52.045 23.583-74.916 22.871-38.303 59.587-67.681 101.939-81.787 78.244-27.069 172.288 8.054 213.565 79.841 19.835 30.822 30.607 73.021 25.887 106.45zM877.732 560.881c16.717 11.597 32.758 24.212 49.684 35.584-14.771 13.338-30.612 25.948-45.379 39.491 10.46 17.126 25.846 30.971 37.637 47.176-16.717 10.66-36.301 17.889-53.786 27.889 6.723 18.714 17.382 35.896 23.844 54.559-19.384 5.535-39.542 7.588-58.972 12.718 2.975 19.482 7.229 38.861 9.738 58.501-19.789 1.9-40.863-3.948-59.884-2.253-4.823 18.918-2.514 40.044-7.337 59.274-19.021-6.001-37.74-12.713-56.658-19.021-8.356 18.555-13.542 38.554-22.359 56.909-15.534-12.503-33.126-22.144-49.326-33.736-13.435 14.766-23.178 33.428-35.789 49.224-14.203-13.537-25.641-32-40.919-45.225-15.995 11.945-30.454 26.051-46.863 37.432-8.617-17.792-17.075-35.692-26.46-53.12-19.174 5.535-36.198 16.763-54.963 23.48-5.54-19.072-8.105-39.276-12.411-58.865-20.204 2.212-40.1 7.439-60.298 9.795 1.224-20.306 4.92-40.561 3.487-60.918-19.589-3.072-39.583-3.072-59.013-6.508 5.279-19.379 12.559-38.149 19.43-56.919-18.821-7.69-38.252-13.742-56.919-21.847 11.387-14.664 18.872-32.916 32-46.044-3.794-18.867-37.381-24.822-47.273-40.407 14.817-13.43 30.612-26.045 45.174-39.685-12.564-15.744-26.721-30.362-37.893-47.068 16.968-10.409 36.198-16.312 53.325-26.255-6.559-18.765-16.814-36.101-23.685-54.815 14.254-9.539 47.58-3.231 59.013-16.66-5.228-15.903-7.076-37.898-9.795-56.356 20.204 2.253 40.566 3.891 60.918 3.738 1.126-19.794 4.511-39.434 4.608-59.325 20.106 2.355 40.412 17.684 59.331 16.512 6.508-17.848 13.993-35.436 19.948-53.484 17.536 6.973 32.717 24.003 50.504 31.237 15.027-12.211 22.508-35.333 37.181-46.92 12.713 14.971 25.994 29.425 38.252 44.764 16.922-10.819 30.766-25.851 47.073-37.688 11.069 16.558 17.536 36.454 27.889 53.683 18.56-6.41 35.789-17.843 54.554-23.485 6.262 18.616 8.31 39.281 12.718 58.819 19.384-4.163 38.866-8.008 58.66-9.697 1.434 20.306-3.077 40.458-1.797 60.764 19.794 0.973 39.434 3.794 59.223 4.659-2.77 12.713-9.231 29.588-13.435 38.564-0.768 7.020-4.204 13.281-5.949 20.045 19.026 6.359 37.535 14.254 56.561 20.613-10.516 17.347-22.308 33.956-33.587 50.872zM539.868 378.44c-49.997 10.87-96.138 38.764-129.116 77.783-52.398 58.609-70.4 144.036-50.248 219.628 28.303 106.547 136.289 186.025 246.994 176.589 100.193-4.613 190.956-79.375 217.308-175.775 17.178-65.531 7.081-137.83-30.356-194.591-52.552-83.067-158.797-127.007-254.582-103.634zM686.776 96.778c-2.048 34.36-6.354 74.199-9.738 104.3-0.205 13.128-2.048 26.204-2.77 39.327-18.616 13.952-35.896 29.583-54.349 43.843-15.795-16.2-29.281-35.891-45.64-50.862-13.788 17.889-25.943 37.12-39.839 54.917-19.533-11.587-37.996-25.027-57.021-37.437-10.511 19.077-15.176 44.616-25.999 63.124-21.53-5.949-43.069-14.566-64.604-21.54-2.253 22.922-5.437 45.844-6.41 68.915-22.922-1.331-45.788-4.659-68.762-3.896 0.922 15.437 6.257 30.362 5.847 45.896-64.916-73.989-129.828-148.347-193.618-223.258-10.255-9.277-18.765-20.511-27.279-31.432 50.406-8.822 102.451-12.974 152.294-21.683 23.583-44.155 44.298-89.943 66.504-134.804 1.126-3.845 4.152-0.773 4.869 1.428 39.276 69.069 81.121 136.75 119.526 206.28 5.893 5.494 7.434 14.72 13.839 19.748-0.251-10.056-2.714-19.901-2.15-29.998-4.721-38.001-9.692-81.992-11.336-122.598-6.354-38.968-7.639-78.915-12.099-118.246 45.742 22.61 90.301 49.126 136.141 71.424 46.3-21.796 90.399-48.553 136.443-71.163-3.594 48.814-9.032 102.031-13.85 147.717z" />
<glyph unicode="&#xa012;" glyph-name="job-history" d="M361.057 921.313h13.43c48.364-1.172 96.584-11.684 140.564-32.077 92.621-41.851 165.228-125.435 193.362-223.15 21.714-73.508 18.842-154.322-9.395-225.679-51.405-11.919-98.995-39.204-135.439-77.348-34.181-35.308-58.604-80.015-69.678-127.887-97.833-39.035-213.146-29.271-303.78 24.074-88.52 50.806-153.103 141.44-171.228 242.022-3.753 19.21-5.366 38.825-6.093 58.368v11.771c0.712 31.299 4.982 62.674 13.788 92.718 26.358 93.614 93.522 174.648 180.255 218.476 47.549 24.53 100.777 37.494 154.214 38.712zM328.34 763.602c0-72.612 0-145.239 0-217.815l0.538-0.927c45.179-29.998 90.24-60.191 135.419-90.189 14.464 21.949 29.199 43.715 43.663 65.638-33.562 22.385-67.18 44.759-100.669 67.128-0.113 58.726-0.051 117.386-0.072 176.046-26.291 0.21-52.582 0.061-78.879 0.118zM825.958 476.124c14.254 14.94 40.361 15.032 54.943 0.353 39.373-39.424 78.838-78.858 118.216-118.282 6.467-6.088 10.291-14.305 12.078-22.943v-8.924c-0.845-9.487-5.197-18.499-11.991-25.155-90.025-90.030-180.050-180.055-270.080-270.080-6.364-6.748-13.64-13.353-22.984-15.483-39.936-10.107-79.877-20.014-119.813-30.070-15.104-3.492-30.070-7.977-45.322-10.854h-6.139c-16.922 1.413-32.189 14.438-35.456 31.252-2.852 11.704 1.94 23.132 4.485 34.417 11.571 46.546 23.306 92.908 34.821 139.453 1.751 7.409 5.238 14.49 10.783 19.871 92.16 92.191 184.264 184.392 276.46 276.444zM791.025 329.687c20.864-20.864 41.641-41.779 62.505-62.5 20.864 20.864 41.728 41.636 62.505 62.5-20.685 20.915-41.641 41.641-62.505 62.551-20.818-20.818-41.728-41.687-62.505-62.551zM613.043 151.378c-7.076-27.617-13.87-55.373-20.767-83.036 26.772 6.707 53.581 13.409 80.394 20.111 3.963 0.707 6.231 4.296 8.97 6.845 38.666 38.712 77.373 77.373 116.086 116.035-20.777 20.915-41.728 41.728-62.505 62.551-40.643-40.832-81.859-81.295-122.179-122.506z" />
<glyph unicode="&#xa013;" glyph-name="messages" d="M512 728.801c-186.066 0-343.188-100.014-343.188-218.404 0-8.637 6.979-15.611 15.585-15.611 8.602 0 15.585 6.973 15.585 15.611 0 99.707 145.792 187.182 312.018 187.182 8.602 0 15.585 7.009 15.585 15.611 0 8.622-6.984 15.611-15.585 15.611zM512 884.808c-275.717 0-499.2-167.654-499.2-374.415 0-128.753 86.63-242.253 218.624-309.673 0-0.84-0.276-1.398-0.276-2.289 0-55.972-41.728-116.188-60.104-147.799h0.056c-1.51-3.471-2.289-7.209-2.289-11.182 0-15.642 12.621-28.262 28.206-28.262 2.964 0 8.1 0.778 7.992 0.389 97.526 15.98 189.358 105.58 210.693 131.548 31.109-4.582 63.288-7.148 96.302-7.148 275.599 0 499.2 167.68 499.2 374.415-0.005 206.761-223.544 374.415-499.205 374.415zM512 198.431c-28.6 0-58.040 2.12-87.25 6.359-3.016 0.568-6.088 0.732-9.052 0.732-18.54 0-36.306-8.269-48.205-22.851-13.404-16.2-51.389-52.5-96.302-79.201 12.18 27.93 21.668 59.259 22.344 91.489 0.225 2.012 0.276 4.029 0.276 5.811 0 23.46-13.123 44.8-34.012 55.532-115.63 59.039-184.617 154.051-184.617 254.095 0 172.042 195.948 312.018 436.808 312.018 240.804 0 436.808-139.981 436.808-312.018 0.010-172.047-195.994-311.967-436.797-311.967z" />
<glyph unicode="&#xa014;" glyph-name="notes" d="M818.519 553.59c0.123-146.883 0.128-293.796-0.072-440.689 1.203-51.753-45.174-98.058-96.86-96.783-181.622-0.297-363.249-0.297-544.84 0-51.569-1.137-97.736 44.918-96.64 96.456-0.292 181.663-0.292 363.356 0 545.055-0.512 40.212 26.808 78.674 64.942 91.346 14.387 5.478 29.911 5.632 45.102 5.663 142.474-0.205 284.918 0.046 427.382-0.056 22.39 22.395 44.795 44.785 67.185 67.18h-516.076c-82.324-3.538-153.175-74.788-155.843-157.261v-555.218c0.732-84.106 73.231-157.814 157.158-160.481h555.469c85.13 0.804 159.636 75.382 160.328 160.527v511.483c-22.405-22.41-44.82-44.81-67.236-67.22zM905.185 947.2h9.856c9.974-1.188 19.835-5.396 26.957-12.611 18.811-18.872 37.663-37.729 56.535-56.591 7.224-7.229 11.372-16.932 12.672-26.952v-9.487c-2.099-9.487-6.154-18.755-13.261-25.605-185.554-185.498-371.123-371.062-556.682-556.559-3.389-3.082-8.141-3.83-12.344-5.391-55.501-18.442-111.017-37.028-166.477-55.572 18.591 56.11 37.402 112.102 56.11 168.151 1.347 4.152 2.371 8.678 5.755 11.699 185.615 185.498 371.067 371.108 556.621 556.559 6.584 6.641 15.319 10.255 24.259 12.36z" />
<glyph unicode="&#xa015;" glyph-name="admin-access" d="M507.295 947.2h9.38c40.489-13.937 80.763-29.189 121.098-43.51 96.456-35.169 193.024-70.072 289.485-105.185 10.921-3.896 19.149-14.264 20.081-25.789 10.429-99.64 13.225-200.489 1.925-300.247-8.837-76.923-26.45-153.359-57.395-224.579-27.653-64.031-66.668-123.402-116.649-172.175-70.18-68.316-162.14-115.553-259.968-126.915h-8.013c-106.66 13.332-206.525 68.372-278.456 147.656-49.439 54.093-86.144 118.902-111.007 187.489-28.145 77.143-42.138 158.674-47.729 240.323-5.381 82.852-1.981 166.144 6.579 248.556 1.152 13.609 12.288 24.248 24.965 27.653 135.414 48.676 270.234 98.437 405.704 146.724zM387.461 645.089c-4.122-13.937-3.241-28.646-3.348-43.013 0-25.293 0.108-50.647-0.051-76.052-10.045-0.108-20.526 0.819-30.070-3.405-17.229-6.799-29.409-24.689-29.025-43.346-0.113-63.099-0.113-126.141 0-189.245 0.215-24.305 22.385-45.43 46.633-44.713 94.264 0 188.534-0.164 282.849 0 23.485 0.492 44.278 21.396 44.667 44.826 0.108 62.996 0 126.034 0.108 189.133 0.22 20.081-13.88 39.122-33.142 44.774-8.504 2.959-17.562 1.423-26.342 2.304 0.497 31.053 0 62.167 0.225 93.332 0.215 24.801-9.989 49.659-27.873 66.883-17.065 17.009-40.878 26.778-65.019 26.67-25.293-0.22-50.703 0.323-76.16-0.282-38.569-1.802-73.523-30.715-83.451-67.866zM446.612 621.548c0.108 15.089 13.276 28.646 28.365 29.245 23.373 0.328 46.853 0 70.236 0.108 11.684 0.548 23.424-5.76 28.805-16.241 4.879-8.663 3.343-19.041 3.564-28.641 0.056-26.557-0.22-53.115 0.164-79.672-43.843-0.604-87.572-0.328-131.302-0.22 0.271 31.831-0.056 63.652 0.169 95.421zM493.189 458.808c11.853 6.861 27.105 6.308 38.738-0.604 13.496-7.844 21.34-24.253 18.545-39.726-1.644-11.464-9.108-21.668-18.877-27.648-0.108-23.869 0.108-47.739-0.108-71.557 0.66-4.992-2.417-10.368-7.572-11.356-7.245-0.44-14.541-0.328-21.842-0.276-4.992 0-9.6 4.5-9.436 9.544-0.328 24.474 0.108 49.055-0.164 73.641-11.197 6.636-18.883 18.816-19.425 31.877-0.978 14.597 7.363 29.245 20.142 36.106z" />
<glyph unicode="&#xa016;" glyph-name="archive" d="M693.53 644.649h272.292v-538.199c0-51.758-50.442-51.758-50.442-51.758h-806.758c0 0-50.432 0-50.432 51.758v538.199h272.287v-90.762c0 0 0-45.379 45.368-45.379h272.302c45.379 0 45.379 45.379 45.379 45.379v90.762h0.005zM57.958 780.8c0 0-45.158 0-45.158-45.379 0-45.389 45.158-45.389 45.158-45.389h907.858c0 0 45.379 0 45.379 45.389 0 45.379-45.379 45.379-45.379 45.379h-907.858zM375.849 553.892h272.302v90.762h-272.302v-90.762z" />
<glyph unicode="&#xa017;" glyph-name="posts" d="M40.192 441.708c-37.842-19.809-36.27-48.84 3.41-64.63l117.422-46.418c39.68-15.683 99.671-7.158 133.34 19.159l510.049 402.202c33.551 26.419 37.12 22.502 7.982-8.689l-403.231-431.549c-29.179-31.119-20.588-69.228 19.231-84.639l13.732-5.35c39.782-15.37 104.709-41.283 144.21-57.329l130.278-53.1c39.542-16.031 71.921-29.389 71.992-29.619 0-0.241 0.2-0.988 0.41-1.060 0.2-0.072 9.539 33.608 20.721 74.752l198.508 729.728c11.218 41.211-10.491 58.691-48.328 38.861l-919.726-482.319zM362.532-35.932c-2.35-6.922 80.312 119.68 80.312 119.68 23.352 35.681 10.092 78.259-29.379 94.341l-90.127 36.951c-39.542 16.159-58.429-2.79-42.061-42.301 0.005-0.031 83.604-201.539 81.254-208.671z" />
<glyph unicode="&#xa018;" glyph-name="settings" d="M792.279 843.479c3.722 6.149 11.351 8.709 18.232 7.368 13.112-1.889 26.26-3.302 39.352-5.33 5.96-0.671 11.679-4.152 14.141-9.759 4.9-11.638 3.661-24.678 6.999-36.7 3.128-10.148 12.692-16.778 22.758-18.852 12.969-4.029 25.492 3.128 37.448 7.24 7.132 2.949 16.312 5.939 22.861 0.061 8.97-8.75 15.959-19.318 23.859-29.030 5.391-6.492 10.941-14.838 7.598-23.629-5.222-13.082-16.492-22.682-22.579-35.231-2.478-12.37 0.532-27.54 11.878-34.739 11.602-7.491 25.569-10.701 36.372-19.569v-51.128c-1.439-5.862-2.99-12.759-8.781-15.831-5.699-2.949-12.15-3.932-18.371-5.212-9.068-1.889-19.451-0.061-27.121-6.339-7.68-6.292-13.338-15.462-15.529-25.119 1.93-14.971 10.47-28.242 13.338-43.018 1.142-7.020-3.128-13.491-8.632-17.428-11.279-8.422-22.108-17.521-33.92-25.19-6.861-4.408-15.068-0.932-21.059 3.261-12.18 6.932-21.699 21.192-37.32 19.63-9.969-1.628-22.272-4.869-26.358-15.299-4.659-10.209-9.032-20.598-14.52-30.408-2.749-5.018-8.422-8.212-14.162-7.649-13.952 0.901-27.74 3.282-41.61 4.972-5.658 0.65-12.15 2.34-14.792 7.992-4.7 10.988-5.54 23.112-7.342 34.801-2.57 14.408-16.988 23.921-30.659 25.83-14.198-3.21-27.208-10.609-41.549-13.44-8.832-1.362-15.57 5.55-20.178 12.119-9.262 13-21.832 24.412-25.528 40.52 5.862 9.262 10.839 19.2 18.432 27.218 5.069 5.222 8.602 12.298 7.608 19.748-1.080 7.752-2.77 15.759-6.692 22.579-11.228 8.008-24.719 12.001-36.859 18.381-6.451 3.379-10.378 10.598-9.82 17.859 0.558 12.611 2.56 25.119 4.332 37.591 0.809 6.298 2.698 13.338 8.643 16.701 13.512 6.651 29.619 3.681 43.228 9.989 11.382 5.299 15.549 18.611 16.082 30.239-0.63 15.222-12.462 27.868-11.689 43.31 2.99 12.14 15.268 18.34 24.12 25.928 9.052 6.18 18.232 16.963 30.392 13.809 9.62-3.988 17.802-10.778 25.61-17.551 11.878-10.312 30.792-7.388 42.532 1.541 8.724 11.228 11.991 25.626 19.251 37.765zM787.118 744.269c-28.698-3.932-55.45-20.163-71.992-43.96-17.94-25.651-24.33-59.31-16.328-89.641 8.049-31.099 30.71-58.132 60.119-71.148 45.158-20.618 103.291-4.332 131.18 36.741 19.282 27.131 24.73 63.462 14.459 95.089-8.479 26.89-28.012 50.15-53.228 62.828-19.61 10.081-42.47 13.143-64.21 10.092zM341.581 711.542c9.748 0.323 19.61 2.171 29.312 0.358 8.95-1.889 16.399-8.678 19.671-17.162 4.009-10.762 9.242-21.12 11.392-32.492 3.359-14.909 12.841-29.471 27.73-34.862 14.74-5.289 32.241-6.451 46.29 1.49 13.24 6.671 25.431 15.191 38.42 22.308 9.631 5.432 22.461 4.818 30.858-2.652 16.579-14.152 32.87-28.672 48.532-43.812 8.612-7.731 11.622-20.618 7.752-31.468-4.009-11.080-9.129-21.719-14.008-32.461-4.009-9.088-11.028-17.71-9.83-28.252 2.12-15.852 8.238-32.748 22.42-41.641 20.152-12.411 45.742-10.409 66.058-22.472 9.728-5.878 11.802-17.961 12.918-28.319 1.582-16.369 2.401-32.84 2.852-49.28-0.041-9.779-0.328-21.268-8.34-28.232-8.632-7.322-19.881-10.189-30.008-14.751-9.452-4.818-20.859-3.82-29.788-9.882-14.551-8.868-20.69-25.999-24.289-41.82-1.951-6.39 0.471-12.959 3.502-18.601 7.501-13.972 15.928-27.412 23.7-41.221 4.229-7.388 7.24-16.179 5.202-24.74-1.618-7.122-6.671-12.672-11.428-17.94-13-14.541-25.969-29.123-39.439-43.218-6.999-7.532-18.371-10.522-28.032-6.728-11.29 4.49-22.902 8.52-33.111 15.212-9.539 5.878-20.628 10.209-32.020 9.088-12.042-0.968-22.702-7.501-32.169-14.541-6.011-4.372-9.59-11.29-10.931-18.509-3.308-15.892-8.218-31.37-12.652-47.002-2.97-13.629-16.942-21.443-30.269-20.198-21.13-0.84-42.22-2.36-63.34-2.949-8.561-0.348-16.681 4.782-20.782 12.16-3.558 6.508-6.118 13.512-9.201 20.219-5.509 11.612-5.878 25.201-13.379 35.922-9.62 15.13-27.802 21.99-44.969 23.511-5.432 0.512-10.639-1.582-15.058-4.531-13.599-9.011-28.042-16.558-42.102-24.76-9.882-5.842-23.168-6.569-32.579 0.63-8.791 6.922-16.891 14.71-25.349 22.031-13.302 12.759-29.292 24.192-35.748 42.25 6.001 16.092 10.67 33.091 20.541 47.37 6.241 8.97 9.032 20.521 6.328 31.242-2.591 10.798-8.489 20.372-13.43 30.228-1.48 3.64-5.018 5.571-8.561 6.748-18.35 6.139-37.222 10.619-55.962 15.34-11.208 2.852-19.871 12.81-21.34 24.259-2.642 22.241-3.599 44.672-4.122 67.052-0.369 10.45 5.299 21.069 14.971 25.462 10.798 4.7 21.74 9.231 33.208 12.022 12.508 3.318 25.201 9.068 33.219 19.63 10.122 13.43 10.291 31.79 6.671 47.519-6.861 18.708-21.908 33.408-27.812 52.572-2.739 8.468-0.082 17.638 4.951 24.678 12.36 17.49 27.561 32.64 42.26 48.138 5.53 5.898 13.082 10.368 21.381 10.301 10.25 0.102 19.062-5.78 28.39-9.221 10.788-3.82 19.149-12.728 30.582-15.048 16.671-4.188 33.603 2.811 47.35 11.919 4.879 3.072 8.438 7.951 10.112 13.46 5.468 16.87 9.421 34.212 13.85 51.379 2.79 10.742 11.668 20.163 23.060 21.279 15.462 1.475 31.043 1.925 46.561 2.985zM336.891 547.348c-45-3.19-88.75-24.361-117.888-59.028-26.752-31.201-40.812-72.612-39.67-113.603 0.282-40.248 16.292-79.949 43.361-109.629 23.972-26.752 56.648-45.681 91.899-52.7 39.199-7.731 80.942-0.348 115.61 19.359 28.36 15.79 51.901 40.12 66.662 69.079 21.299 40.561 24.371 89.979 9.359 133.151-12.191 35.692-36.7 67.021-68.429 87.419-29.614 19.364-65.608 28.667-100.905 25.953z" />
<glyph unicode="&#xa019;" glyph-name="email" d="M23.962 795.551c11.351 16.671 31.201 26.947 51.338 26.829 291.118 0.102 582.252 0 873.37 0.061 17.372 0.056 34.509-7.45 46.188-20.321 9.052-9.631 14.060-22.292 16.338-35.139v-6.938c-166.328-128.292-332.728-256.522-499.139-384.737-166.625 127.959-332.836 256.481-499.256 384.732v6.743c1.93 10.163 5.048 20.285 11.162 28.769zM12.8 626.345c150.19-114.816 300.36-229.668 450.509-344.545 13.752-11.131 30.561-20.669 48.788-20.065 15.872-0.62 30.771 7.081 43.351 16.108 151.9 114.109 303.892 228.132 455.752 342.298v-491.049c-2.299-12.892-7.25-25.564-16.338-35.195-11.991-13.42-30.029-20.772-47.949-20.301-290.55-0.056-581.079 0.020-871.629-0.041-16.85 0.041-33.582 6.999-45.158 19.308-9.651 9.708-14.981 22.794-17.321 36.096v497.388z" />
<glyph unicode="&#xa020;" glyph-name="log" d="M79.77 805.453c3.308 32.302 33.27 58.808 65.731 58.235 66.621 0.23 133.238 0.333 199.859 0.435 26.634 0.302 52.316-17.075 61.798-41.958 7.526-18.278 3.738-38.38 4.925-57.544 128.87-0.046 257.746 0.497 386.616 0.676 10.317 0 20.874 0.538 30.884-2.534 21.658-6.021 39.619-23.788 45.609-45.481 4.608-16.788 2.135-34.386 2.647-51.558-22.124-0.261-44.252-0.195-66.371-0.164-0.85 9.426 2.473 20.884-5.012 28.339-6.328 6.492-16.113 4.557-24.269 4.849-228.076-0.614-456.151-0.927-684.247-1.5-8.028 0.676-16.517-4.526-17.94-12.785-1.039-7.465-0.43-15.053-0.532-22.554 0.348-120.602 0.461-241.178 0.814-361.759-0.092-7.583 0.799-15.524-2.345-22.687-21.427-56.392-41.728-113.239-63.606-169.477-1.014 195.717-0.835 391.444-1.51 587.167-0.522 21.064 9.201 42.127 26.086 54.845 11.377 9.149 25.907 13.046 40.243 14.157 0.558 13.768-0.635 27.571 0.62 41.298zM764.339 631.511c9.436 1.055 18.939 0.66 28.401 0.676 54.769 0.159 109.553 0.23 164.352 0.364 15.242 0.348 30.51-6.026 40.632-17.505 12.877-14.177 17.157-35.712 10.107-53.591-60.692-161.679-121.385-323.343-182.139-485.012-8.745-22.267-29.394-42.691-54.451-43.177-220.447-0.394-440.883-0.916-661.33-1.326-14.95-0.205-31.063-0.507-44.288 7.619-16.051 10.194-22.518 32.205-15.299 49.654 51.886 139.259 103.767 278.513 155.663 417.766 4.465 11.658 7.762 24.136 15.647 34.089 11.525 15.017 30.3 24.084 49.27 23.501 123.428 0.276 246.871 0.532 370.319 0.763 4.47-0.41 8.1 2.529 11.653 4.787 18.98 12.995 38.205 25.595 57.226 38.518 15.933 11.756 34.304 20.92 54.236 22.876z" />
<glyph unicode="&#xa021;" glyph-name="attachment" d="M716.298 947.2h27.848c47.519-2.944 94.531-16.947 134.902-42.429 49.71-31.048 89.472-77.926 111.401-132.311 12.698-30.792 19.272-63.898 20.751-97.106v-17.884c-1.792-41.554-11.971-82.893-31.299-119.808-13.409-26.112-31.119-49.925-51.871-70.646-71.91-72.463-143.852-144.911-215.808-217.344-25.4-25.764-59.039-43.392-94.838-48.932-34.452-5.632-70.63-0.425-102.052 14.858-35.82 17.219-65.3 47.324-81.603 83.594-15.309 33.48-19.231 71.977-11.249 107.909 6.82 31.749 23.219 61.271 46.152 84.198 54.682 55.204 109.358 110.413 164.060 165.601 10.9 11.894 31.38 12.851 43.090 1.613 15.411-15.048 30.52-30.418 45.768-45.65 11.679-11.213 11.72-31.611 0.369-43.075-54.912-55.685-110.060-111.15-165.069-166.743-9.108-9.206-14.331-22.211-13.609-35.19 0.64-16.307 10.552-31.872 25.139-39.276 17.449-9.518 40.771-5.868 54.651 8.34 72.878 73.344 145.741 146.698 218.563 220.099 23.788 24.202 39.598 56.32 43.571 90.066 4.46 34.478-3.18 70.395-21.299 100.060-19.292 31.954-50.371 56.704-86.031 67.876-32.548 10.516-68.552 9.708-100.68-1.946-21.862-7.839-41.692-20.941-58.010-37.422-143.974-143.964-287.944-287.954-431.939-431.898-14.838-14.269-27.361-31.084-35.784-49.925-15.754-34.724-18.135-75.325-6.431-111.642 11.013-35.19 35.21-65.94 66.57-85.263 29.404-18.314 65.111-26.332 99.507-22.277 33.418 3.533 65.408 18.611 89.738 41.713 16.809 15.99 33.51 32.102 50.33 48.067 39.142-26.788 85.878-42.491 133.361-43.54-29.082-28.375-58.26-56.632-87.378-84.961-19.948-20.132-42.26-38.067-67.128-51.732-37.862-21.437-80.85-32.748-124.14-35.395h-24.243c-50.458 2.811-100.419 18.196-142.541 46.351-48.676 32.108-87.148 79.606-107.781 134.185-11.469 29.67-17.372 61.363-18.483 93.112v16.087c2.319 68.716 30.362 136.325 78.428 185.641 144.108 144.497 288.558 288.62 432.809 432.973 18.34 18.98 38.62 36.198 61.338 49.746 39.388 24.161 84.941 37.238 130.918 40.305z" />
<glyph unicode="&#xa022;" glyph-name="tick-on" d="M191.037 947.2h636.38c95.729-0.748 179.651-82.708 183.788-178.068v-636.749c-0.799-97.372-86.011-182.661-183.368-183.578h-635.3c-95.985 3.046-178.903 87.337-179.738 183.537v634.998c3.052 94.31 84.086 175.811 178.237 179.86zM164.055 863.949c-43.612-14.49-74.854-58.481-74.271-104.468-0.333-207.811-0.333-415.621 0-623.38-1.254-58.941 51.543-111.611 110.525-110.321 207.683-0.328 415.416-0.328 623.135 0 59.11-1.459 112.148 51.502 110.771 110.689 0.292 207.852 0.292 415.749 0 623.56 1.172 59.018-51.871 111.652-110.858 110.188-202.578 0.461-405.125-0.092-607.718 0.2-17.377-0.036-35.133-0.195-51.584-6.467zM752.727 665.452h7.818c16.159-1.080 31.99-7.762 43.392-19.292 14.449-14.080 21.852-34.918 19.548-54.968-1.541-15.329-8.73-29.901-19.722-40.689-112.609-112.691-225.219-225.388-337.797-338.038-7.603-7.731-18.048-12.252-28.78-13.123h-5.386c-10.445 0.87-20.634 5.181-28.155 12.529-61.532 61.701-123.146 123.31-184.709 185.042-17.044 17.26-23.311 44.15-15.708 67.21 5.811 18.432 20.050 34.012 37.929 41.318 17.792 7.598 38.804 6.84 56.013-2.012 8.812-4.219 16-10.9 22.723-17.879 38.262-38.262 76.442-76.57 114.744-114.739 91.684 91.679 183.291 183.46 274.98 275.139 11.366 11.489 27.028 18.289 43.11 19.502z" />
<glyph unicode="&#xa023;" glyph-name="tick-off" d="M191.037 947.2h636.38c95.729-0.748 179.645-82.698 183.788-178.068v-636.739c-0.794-97.382-86.006-182.671-183.368-183.588h-635.3c-95.985 3.046-178.903 87.347-179.738 183.537v634.998c3.052 94.321 84.086 175.811 178.237 179.86zM164.055 863.949c-43.612-14.49-74.854-58.481-74.271-104.468-0.333-207.811-0.333-415.611 0-623.38-1.254-58.941 51.543-111.611 110.525-110.31 207.683-0.338 415.411-0.338 623.13 0 59.11-1.459 112.154 51.502 110.776 110.689 0.292 207.852 0.292 415.739 0 623.549 1.172 59.018-51.876 111.652-110.858 110.188-202.578 0.461-405.125-0.082-607.718 0.21-17.377-0.036-35.133-0.205-51.584-6.477z" />
<glyph unicode="&#xa024;" glyph-name="filter" d="M953.395 847.739c24.31-18.662 45.619-43.336 53.862-73.472 6.052-21.13 3.871-43.433 1.782-64.922-2.371-22.308-5.289-44.708-12.068-66.109-4.332-14.474-16.159-24.673-25.4-36.050-110.351-130.202-220.892-260.316-331.428-390.472-3.272-3.144-3.272-7.788-3.272-12.063 0.092-44.027 0.128-87.956-0.051-131.845 0-34.237-15.109-68.009-40.289-90.957-20.659-19.031-47.841-31.043-75.889-32.819-34.78-2.504-70.472 10.337-95.329 34.959-23.439 22.303-37.381 54.175-38.011 86.451-0.41 34.012 0.323 67.784-0.323 101.658-11.561-2.78-23.081-5.914-34.918-7.24-43.612-5.376-89.052 5.78-125.010 31.094-14.7 9.83-26.68 23.086-39.378 35.282-12.928 12.657-25.682 25.492-38.508 38.241-15.391 15.478-31.872 30.141-43.75 48.44-25.088 36.787-35.149 83.041-28.498 127.017 4.142 30.684 17.838 59.372 36.101 84.137-27.412 33.408-55.45 66.376-83.128 99.61-8.919 10.783-14.208 24.673-14.392 38.784-0.41 26.312-2.729 52.536-2.678 78.94 0.271 27.95 12.16 55.086 30.592 75.843 24.131 27.771 56.448 46.802 89.692 61.737 43.971 19.666 90.732 32.23 137.759 41.702 100.291 19.389 202.9 24.305 304.788 20.301 89.359-4.326 179.139-15.34 264.632-42.609 39.91-13.117 79.38-29.87 113.111-55.639zM246.574 856.028c-43.3-11.013-86.641-24.627-124.831-48.394-17.48-11.336-34.78-25.308-42.931-45.117-6.282-14.653-3.732-32.005 4.639-45.338 8.919-14.162 22.083-25.088 35.922-34.284 25.728-16.435 54.221-28.18 83.272-37.463 94.909-29.681 194.842-39.608 293.96-41.201 92.221-0.773 185.098 6.374 275.241 27.407 43.571 10.609 87.322 24.131 126.188 47.073 17.582 10.88 35.011 24.084 44.989 42.706 7.782 14.52 7.639 32.819-0.64 47.16-10.199 18.524-27.679 31.596-45.532 42.424-29.041 17.075-61.179 28.687-93.548 38.108-79.258 22.395-161.618 31.867-243.738 34.964-104.888 3.231-210.79-3.461-312.991-28.047zM859.663 618.117c-47.299-19.671-97.382-31.826-147.779-40.515-79.708-13.389-160.881-17.485-241.69-15.212-86.912 3.098-174.372 13.251-258.038 37.693-46.531 14.203-93.010 32.778-130.57 64.645 37.699-46.572 76.902-92.052 115.139-138.127-13.199-16.072-30.5-28.631-41.472-46.525-28.959-44.155-22.042-107.802 16.159-144.399 20.531-20.393 41.149-40.883 61.64-61.281 11.791-11.653 23.081-24.218 37.688-32.415 36.7-21.581 85.14-21.304 121.329 1.275 10.199 5.827 18.161 14.751 27.812 21.396 9.242-7.921 17.439-16.84 26.040-25.308 2.55-2.186 4.050-5.279 3.738-8.74-0.092-46.71-0.051-93.368-0.051-140.17-0.092-14.070-0.998-28.82 5.238-41.841 9.692-22.902 34.412-38.559 59.448-37.33 22.902 0.543 44.621 15.068 54.18 35.83 5.228 10.742 6.241 22.804 6.011 34.55-0.271 49.029 0 98.156-0.138 147.092 0.092 3.415-0.22 7.24 2.412 9.702 109.578 129.014 218.941 258.038 328.509 386.959 10.701 13.204 22.441 25.636 32.819 39.245-23.24-19.845-50.294-34.78-78.423-46.525zM373.637 314.373c-44.749 54.17-89.912 107.981-135.158 161.7-10.931-11.791-24.719-21.581-32.102-36.239-9.339-19.256-4.961-43.976 10.291-58.911 25.272-25.221 50.488-50.621 75.802-75.756 14.469-14.387 37.919-18.842 56.632-10.373 9.784 4.193 17.382 11.93 24.535 19.579z" />
<glyph unicode="&#xa025;" glyph-name="new-contact" d="M878.126 664.253c17.352 0.184 34.693 0.087 52.065 0 26.056-0.42 51.374-14.152 66.099-35.615 9.713-13.783 14.766-30.572 14.909-47.375-0.020-144.307 0.020-288.584-0.020-432.886-0.108-19.287-6.886-38.497-19.364-53.263-15.437-18.739-39.455-29.783-63.683-29.804-214.292-0.020-428.559 0-642.826-0.020-16.538 0.246-33.628-1.393-49.505 4.403-32.425 10.378-56.141 42.537-56.55 76.585-0.169 17.388 0.041 34.755 0 52.116 22.154 0 44.319 0.154 66.493-0.010 0.374-16.686-0.312-33.347 0.138-50.028-0.061-7.383 5.35-14.52 12.692-15.974 6.093-0.978 12.293-0.461 18.452-0.502 216.351-0.020 432.701 0.041 649.047-0.041 9.467-0.957 18.76 6.82 18.473 16.532 0.164 138.685-0.026 277.396 0.102 416.082-0.102 6.84 0.476 13.747-0.604 20.506-1.454 7.301-8.484 12.897-15.928 12.728-16.686 0.189-33.388-0.087-50.058 0.123 0.046 22.159-0.138 44.314 0.067 66.442zM844.81 747.633c-0.020 24.253-11.064 48.297-29.865 63.683-15.252 13.041-35.425 19.82-55.409 19.405-220.508 0-441.021-0.020-661.519 0-3.896-0.061-7.808-0.205-11.674-0.645-23.88-2.621-46.259-16.22-59.479-36.296-9.569-14.121-14.172-31.258-14.039-48.251 0.015-143.596 0.015-287.165-0.026-430.756-0.026-24.253 11.105-48.276 29.86-63.683 15.268-13.046 35.446-19.779 55.455-19.384 221.189-0.020 442.409-0.020 663.603 0 25.728-0.020 51.164 12.498 66.452 33.26 11.228 14.787 16.891 33.444 16.66 51.932-0.061 143.57-0.020 287.16-0.020 430.735zM513.050 696.556c9.277 1.746 18.719 0.937 28.099 1.034 60.288-0.041 120.591 0 180.905-0.020 7.286 0.123 14.643 0.399 21.862-0.993 1.684-10.301 1.644-20.905 0-31.222-8.591-1.618-17.331-1.004-25.999-1.039-58.921 0.026-117.868 0.026-176.788 0-9.375 0.087-18.801-0.579-28.093 1.039-1.654 10.296-1.654 20.9 0.015 31.201zM179.502 661.181c10.184 26.45 34.452 47.012 62.367 52.234 18.488 3.656 38.205 1.019 54.953-7.675 19.011-9.641 34.058-26.788 41.124-46.904 7.716-21.356 6.231-45.819-4.029-66.079-7.972-16.077-21.212-29.425-37.228-37.53-20.045-10.348-44.319-12.068-65.644-4.705-20.833 6.979-38.61 22.533-48.348 42.235-10.665 20.992-11.73 46.5-3.195 68.424zM92.017 396.032c0.031 36.521 12.303 72.96 34.908 101.693 16.435 21.079 37.919 38.292 62.295 49.326 12.232-9.984 26.552-17.48 41.892-21.325 1.608-0.476 3.64-0.66 4.372-2.488 7.532-12.82 14.828-25.795 22.349-38.62 0.261 0.015 0.788 0.015 1.065 0.015 8.028 13.251 15.155 27.141 23.557 40.1 16.42 4.060 32.020 11.53 45.041 22.38 40.197-18.335 72.556-53.202 87.352-94.884 6.528-17.946 9.723-37.069 9.784-56.166-110.884-0.061-221.742-0.005-332.616-0.031zM513.029 596.741c7.214 1.413 14.561 1.101 21.878 0.993 60.288 0.041 120.612-0.020 180.925 0.020 9.344-0.102 18.785 0.712 28.037-1.075 1.71-10.281 1.71-20.864 0.046-31.16-8.571-1.638-17.331-0.993-25.999-0.993-63.099-0.123-126.208 0.102-189.312-0.108-5.094 0.732-12.421-1.915-15.831 3.016-1.495 9.651-1.229 19.656 0.256 29.307zM743.46 466.145c-3.369-1.649-7.194-1.413-10.819-1.541-63.852 0.123-127.683 0.046-191.534 0.046-9.354 0.118-18.821-0.712-28.073 1.014-1.516 9.149-1.485 18.514-0.604 27.704 0.292 4.972 6.282 4.347 9.795 4.552 65.244-0.020 130.473-0.020 195.717 0 8.678-0.041 17.408 0.604 25.999-1.014 1.219-10.107 2.391-20.879-0.481-30.761z" />
</font>
</defs>
</svg>
